name rise38.3101peak57.3503fall81.6963.mot
datacolumns 19
datarows 21
range 3.18665600000000 3.21999400000000
endheader
time	ground_force1_vx	ground_force1_vy	ground_force1_vz	ground_force1_px	ground_force1_py	ground_force1_pz	ground_force2_vx	ground_force2_vy	ground_force2_vz	ground_force2_px	ground_force2_py	ground_force2_pz	ground_torque1_x	ground_torque1_y	ground_torque1_z	ground_torque2_x	ground_torque2_y	ground_torque2_z	
3.18665600000000	69.78856500000001	772.04991399999994	56.90238400000000	0.36784800000000	0.00000000000000	0.11425300000000	0.00000000000000	0.00000000000000	0.00000000000000	0.00000000000000	0.00000000000000	0.00000000000000	0.00000000000000	24.97074100000000	0.00000000000000	0.00000000000000	0.00000000000000	0.00000000000000	
3.18833100000000	69.13158900000001	773.89121999999998	57.00582500000000	0.36665400000000	0.00000000000000	0.11427900000000	0.00000000000000	0.00000000000000	0.00000000000000	0.00000000000000	0.00000000000000	0.00000000000000	0.00000000000000	25.03101200000000	0.00000000000000	0.00000000000000	0.00000000000000	0.00000000000000	
3.18999300000000	68.47408400000000	775.59876099999997	57.10782900000000	0.36548300000000	0.00000000000000	0.11430700000000	0.00000000000000	0.00000000000000	0.00000000000000	0.00000000000000	0.00000000000000	0.00000000000000	0.00000000000000	25.09227700000000	0.00000000000000	0.00000000000000	0.00000000000000	0.00000000000000	
3.19165800000000	67.81687300000000	777.17268100000001	57.20809900000000	0.36433500000000	0.00000000000000	0.11433500000000	0.00000000000000	0.00000000000000	0.00000000000000	0.00000000000000	0.00000000000000	0.00000000000000	0.00000000000000	25.15431600000000	0.00000000000000	0.00000000000000	0.00000000000000	0.00000000000000	
3.19333000000000	67.16070900000000	778.61324900000000	57.30628200000000	0.36321100000000	0.00000000000000	0.11436500000000	0.00000000000000	0.00000000000000	0.00000000000000	0.00000000000000	0.00000000000000	0.00000000000000	0.00000000000000	25.21687400000000	0.00000000000000	0.00000000000000	0.00000000000000	0.00000000000000	
3.19499000000000	66.50627000000000	779.92087300000003	57.40197400000000	0.36211100000000	0.00000000000000	0.11439500000000	0.00000000000000	0.00000000000000	0.00000000000000	0.00000000000000	0.00000000000000	0.00000000000000	0.00000000000000	25.27966200000000	0.00000000000000	0.00000000000000	0.00000000000000	0.00000000000000	
3.19666300000000	65.85416200000000	781.09610799999996	57.49472800000000	0.36103600000000	0.00000000000000	0.11442500000000	0.00000000000000	0.00000000000000	0.00000000000000	0.00000000000000	0.00000000000000	0.00000000000000	0.00000000000000	25.34236400000000	0.00000000000000	0.00000000000000	0.00000000000000	0.00000000000000	
3.19832900000000	65.20492200000000	782.13966500000004	57.58406000000000	0.35998500000000	0.00000000000000	0.11445700000000	0.00000000000000	0.00000000000000	0.00000000000000	0.00000000000000	0.00000000000000	0.00000000000000	0.00000000000000	25.40463800000000	0.00000000000000	0.00000000000000	0.00000000000000	0.00000000000000	
3.19999500000000	64.55902200000000	783.05241899999999	57.66945200000000	0.35895900000000	0.00000000000000	0.11448800000000	0.00000000000000	0.00000000000000	0.00000000000000	0.00000000000000	0.00000000000000	0.00000000000000	0.00000000000000	25.46612400000000	0.00000000000000	0.00000000000000	0.00000000000000	0.00000000000000	
3.20166100000000	63.91686800000000	783.83541600000001	57.75036600000000	0.35795700000000	0.00000000000000	0.11452000000000	0.00000000000000	0.00000000000000	0.00000000000000	0.00000000000000	0.00000000000000	0.00000000000000	0.00000000000000	25.52644300000000	0.00000000000000	0.00000000000000	0.00000000000000	0.00000000000000	
3.20332800000000	63.27880600000000	784.48987699999998	57.82624500000000	0.35697900000000	0.00000000000000	0.11455200000000	0.00000000000000	0.00000000000000	0.00000000000000	0.00000000000000	0.00000000000000	0.00000000000000	0.00000000000000	25.58520800000000	0.00000000000000	0.00000000000000	0.00000000000000	0.00000000000000	
3.20499100000000	62.64512100000000	785.01720699999998	57.89651900000000	0.35602500000000	0.00000000000000	0.11458500000000	0.00000000000000	0.00000000000000	0.00000000000000	0.00000000000000	0.00000000000000	0.00000000000000	0.00000000000000	25.64202100000000	0.00000000000000	0.00000000000000	0.00000000000000	0.00000000000000	
3.20666400000000	62.01604800000000	785.41899899999999	57.96061800000000	0.35509300000000	0.00000000000000	0.11461800000000	0.00000000000000	0.00000000000000	0.00000000000000	0.00000000000000	0.00000000000000	0.00000000000000	0.00000000000000	25.69648200000000	0.00000000000000	0.00000000000000	0.00000000000000	0.00000000000000	
3.20832900000000	61.39176800000000	785.69703400000003	58.01796900000000	0.35418500000000	0.00000000000000	0.11465000000000	0.00000000000000	0.00000000000000	0.00000000000000	0.00000000000000	0.00000000000000	0.00000000000000	0.00000000000000	25.74818800000000	0.00000000000000	0.00000000000000	0.00000000000000	0.00000000000000	
3.20999100000000	60.77241300000000	785.85328700000002	58.06801100000000	0.35329800000000	0.00000000000000	0.11468300000000	0.00000000000000	0.00000000000000	0.00000000000000	0.00000000000000	0.00000000000000	0.00000000000000	0.00000000000000	25.79674400000000	0.00000000000000	0.00000000000000	0.00000000000000	0.00000000000000	
3.21165500000000	60.15807200000000	785.88992599999995	58.11019500000000	0.35243100000000	0.00000000000000	0.11471600000000	0.00000000000000	0.00000000000000	0.00000000000000	0.00000000000000	0.00000000000000	0.00000000000000	0.00000000000000	25.84175900000000	0.00000000000000	0.00000000000000	0.00000000000000	0.00000000000000	
3.21332800000000	59.54879500000000	785.80931199999998	58.14399300000000	0.35158500000000	0.00000000000000	0.11474900000000	0.00000000000000	0.00000000000000	0.00000000000000	0.00000000000000	0.00000000000000	0.00000000000000	0.00000000000000	25.88285200000000	0.00000000000000	0.00000000000000	0.00000000000000	0.00000000000000	
3.21500400000000	58.94459300000000	785.61400200000003	58.16890000000000	0.35075800000000	0.00000000000000	0.11478100000000	0.00000000000000	0.00000000000000	0.00000000000000	0.00000000000000	0.00000000000000	0.00000000000000	0.00000000000000	25.91965900000000	0.00000000000000	0.00000000000000	0.00000000000000	0.00000000000000	
3.21665800000000	58.34544400000000	785.30674099999999	58.18444200000000	0.34994800000000	0.00000000000000	0.11481300000000	0.00000000000000	0.00000000000000	0.00000000000000	0.00000000000000	0.00000000000000	0.00000000000000	0.00000000000000	25.95182900000000	0.00000000000000	0.00000000000000	0.00000000000000	0.00000000000000	
3.21832700000000	57.75129800000000	784.89046399999995	58.19017900000000	0.34915500000000	0.00000000000000	0.11484500000000	0.00000000000000	0.00000000000000	0.00000000000000	0.00000000000000	0.00000000000000	0.00000000000000	0.00000000000000	25.97903300000000	0.00000000000000	0.00000000000000	0.00000000000000	0.00000000000000	
3.21999400000000	57.16207800000000	784.36828800000001	58.18571100000000	0.34837700000000	0.00000000000000	0.11487700000000	0.00000000000000	0.00000000000000	0.00000000000000	0.00000000000000	0.00000000000000	0.00000000000000	0.00000000000000	26.00096300000000	0.00000000000000	0.00000000000000	0.00000000000000	0.00000000000000	
